{
  "accessors": [
    {
      "bufferView": 3,
      "componentType": 5126,
      "count": 18971,
      "max": [
        5.4343924522399902,
        11.661928176879883,
        2.2912211418151855
      ],
      "min": [
        -5.4263710975646973,
        -5.7352447509765625,
        -1.9199423789978027
      ],
      "type": "VEC3"
    },
    {
      "bufferView": 3,
      "byteOffset": 227652,
      "componentType": 5126,
      "count": 18971,
      "max": [
        1,
        1,
        1
      ],
      "min": [
        -1,
        -1,
        -1
      ],
      "type": "VEC3"
    },
    {
      "bufferView": 2,
      "componentType": 5126,
      "count": 18971,
      "max": [
        0.99706000089645386,
        0.99531227350234985
      ],
      "min": [
        -0.00099566089920699596,
        0.0037397027481347322
      ],
      "type": "VEC2"
    },
    {
      "bufferView": 1,
      "componentType": 5125,
      "count": 73632,
      "max": [
        18970
      ],
      "min": [
        0
      ],
      "type": "SCALAR"
    },
    {
      "bufferView": 5,
      "componentType": 5126,
      "count": 10,
      "max": [
        1,
        0.81513243913650513,
        0.011912004090845585,
        0,
        0.81518667936325073,
        1,
        0.005421007052063942,
        0,
        2.7939665869780583e-07,
        0.014528272673487663,
        1.0005789995193481,
        0,
        3.0800514221191406,
        2.7747337818145752,
        0.090130038559436798,
        1
      ],
      "min": [
        -1.0002000331878662,
        -0.81513118743896484,
        -0.011911911889910698,
        0,
        -0.81518781185150146,
        -0.99995565414428711,
        -0.032357558608055115,
        0,
        -1.8812713165061723e-07,
        -0.034480642527341843,
        0.99940526485443115,
        0,
        -3.0753970146179199,
        -3.7754812240600586,
        -0.036920882761478424,
        1
      ],
      "type": "MAT4"
    },
    {
      "bufferView": 0,
      "componentType": 5123,
      "count": 18971,
      "max": [
        9,
        2,
        2,
        2
      ],
      "min": [
        2,
        2,
        2,
        2
      ],
      "type": "VEC4"
    },
    {
      "bufferView": 4,
      "componentType": 5126,
      "count": 18971,
      "max": [
        1,
        0,
        0,
        0
      ],
      "min": [
        1,
        0,
        0,
        0
      ],
      "type": "VEC4"
    }
  ],
  "asset": {
    "extras": {
      "author": "Ji3D (https://sketchfab.com/ji3d)",
      "license": "CC-BY-4.0 (http://creativecommons.org/licenses/by/4.0/)",
      "source": "https://sketchfab.com/3d-models/lego-spiderman-a8acef5e02214bdd8360b003bfea5292",
      "title": "Lego Spiderman"
    },
    "generator": "Sketchfab-10.15.0",
    "version": "2.0"
  },
  "bufferViews": [
    {
      "buffer": 0,
      "byteLength": 151768,
      "byteOffset": 0,
      "byteStride": 8,
      "name": "shortBufferViews",
      "target": 34962
    },
    {
      "buffer": 0,
      "byteLength": 294528,
      "byteOffset": 151768,
      "name": "floatBufferViews",
      "target": 34963
    },
    {
      "buffer": 0,
      "byteLength": 151768,
      "byteOffset": 446296,
      "byteStride": 8,
      "name": "floatBufferViews",
      "target": 34962
    },
    {
      "buffer": 0,
      "byteLength": 455304,
      "byteOffset": 598064,
      "byteStride": 12,
      "name": "floatBufferViews",
      "target": 34962
    },
    {
      "buffer": 0,
      "byteLength": 303536,
      "byteOffset": 1053368,
      "byteStride": 16,
      "name": "floatBufferViews",
      "target": 34962
    },
    {
      "buffer": 0,
      "byteLength": 640,
      "byteOffset": 1356904,
      "byteStride": 64,
      "name": "floatBufferViews"
    }
  ],
  "buffers": [
    {
      "byteLength": 1357544,
      "uri": "scene.bin"
    }
  ],
  "images": [
    {
      "uri": "textures/lego_baseColor.png"
    },
    {
      "uri": "textures/lego_metallicRoughness.png"
    }
  ],
  "materials": [
    {
      "doubleSided": true,
      "emissiveFactor": [
        0,
        0,
        0
      ],
      "name": "lego",
      "pbrMetallicRoughness": {
        "baseColorFactor": [
          1,
          1,
          1,
          1
        ],
        "baseColorTexture": {
          "index": 0,
          "texCoord": 0
        },
        "metallicFactor": 0,
        "metallicRoughnessTexture": {
          "index": 1,
          "texCoord": 0
        },
        "roughnessFactor": 1
      }
    }
  ],
  "meshes": [
    {
      "primitives": [
        {
          "attributes": {
            "JOINTS_0": 5,
            "NORMAL": 1,
            "POSITION": 0,
            "TEXCOORD_0": 2,
            "TEXCOORD_1": 2,
            "TEXCOORD_2": 2,
            "WEIGHTS_0": 6
          },
          "indices": 3,
          "material": 0,
          "mode": 4
        }
      ]
    }
  ],
  "nodes": [
    {
      "children": [
        1
      ],
      "name": "RootNode (gltf orientation matrix)",
      "rotation": [
        -0.70710678118654746,
        -0,
        -0,
        0.70710678118654757
      ]
    },
    {
      "children": [
        2
      ],
      "name": "RootNode (model correction matrix)"
    },
    {
      "children": [
        3
      ],
      "name": "root"
    },
    {
      "children": [
        4
      ],
      "matrix": [
        1,
        0,
        0,
        0,
        0,
        2.2204460492503131e-16,
        1,
        0,
        0,
        -1,
        2.2204460492503131e-16,
        0,
        0,
        0,
        0,
        1
      ],
      "name": "GLTF_SceneRootNode"
    },
    {
      "children": [
        5
      ],
      "matrix": [
        1,
        0,
        0,
        0,
        0,
        1,
        0,
        0,
        0,
        0,
        1,
        0,
        0.0040137544274330139,
        1.4104012250900269,
        0.029275514185428619,
        1
      ],
      "name": "Armature_10"
    },
    {
      "children": [
        6,
        8,
        7
      ],
      "name": "GLTF_created_0"
    },
    {
      "children": [
        9
      ],
      "name": "GLTF_created_0_rootJoint"
    },
    {
      "name": "Lego_man_9"
    },
    {
      "mesh": 0,
      "name": "",
      "skin": 0
    },
    {
      "children": [
        10,
        16,
        17
      ],
      "name": "Root_8",
      "rotation": [
        0.007264292798936367,
        -3.5711855694842143e-09,
        4.3477086819621036e-07,
        0.9999735951423645
      ],
      "scale": [
        1,
        0.99999994039535522,
        0.99999994039535522
      ],
      "translation": [
        7.674098014831543e-07,
        -0.88242268562316895,
        -0.012821301817893982
      ]
    },
    {
      "children": [
        11,
        12,
        14
      ],
      "name": "Torso_5",
      "rotation": [
        -0.0099746724590659142,
        1.0818390627775898e-08,
        -5.9710720279326779e-07,
        0.99995023012161255
      ],
      "scale": [
        1,
        0.99999988079071045,
        0.99999994039535522
      ],
      "translation": [
        -5.6793288062857716e-14,
        0.88251572847366333,
        -3.9301895071730542e-13
      ]
    },
    {
      "name": "Head_0",
      "rotation": [
        0.0027105135377496481,
        -7.247944466826084e-09,
        1.6229923005539604e-07,
        0.99999630451202393
      ],
      "scale": [
        1,
        1,
        0.99999994039535522
      ],
      "translation": [
        -4.7411313969843855e-14,
        2.3651151657104492,
        6.6648075947028929e-14
      ]
    },
    {
      "children": [
        13
      ],
      "name": "Shoulder.L_2",
      "rotation": [
        -0.0014309649122878909,
        0.0075890282168984413,
        -0.88856101036071777,
        0.45869347453117371
      ],
      "scale": [
        0.99999988079071045,
        0.99999994039535522,
        0.99999994039535522
      ],
      "translation": [
        -1.6619931386685494e-07,
        2.3651151657104492,
        3.0999174338575131e-09
      ]
    },
    {
      "name": "Arm.L_1",
      "rotation": [
        -0.010903033427894115,
        0.0068216673098504543,
        -0.29558911919593811,
        0.95522862672805786
      ],
      "translation": [
        9.8261011771683116e-08,
        0.93105006217956543,
        -3.895175293422426e-09
      ]
    },
    {
      "children": [
        15
      ],
      "name": "Shoulder.R_4",
      "rotation": [
        -0.0014309433754533529,
        -0.007589070126414299,
        0.88856160640716553,
        0.45869237184524536
      ],
      "scale": [
        1,
        1.0000001192092896,
        0.99999994039535522
      ],
      "translation": [
        -4.7411313969843855e-14,
        2.3651151657104492,
        6.6648075947028929e-14
      ]
    },
    {
      "name": "Arm.R_3",
      "rotation": [
        -0.010902995243668556,
        -0.0068216593936085701,
        0.29558828473091125,
        0.95522886514663696
      ],
      "scale": [
        0.99999994039535522,
        0.99999988079071045,
        0.99999988079071045
      ],
      "translation": [
        -9.9868771030742209e-08,
        0.93104797601699829,
        -1.087761969387202e-08
      ]
    },
    {
      "name": "Leg.L_6",
      "rotation": [
        0.00016039068577811122,
        0.0072660217992961407,
        0.9999624490737915,
        -0.0047156843356788158
      ],
      "scale": [
        1.0001641511917114,
        0.99999982118606567,
        1.0003886222839355
      ],
      "translation": [
        0.49805760383605957,
        0.91989380121231079,
        -0.01336575485765934
      ]
    },
    {
      "name": "Leg.R_7",
      "rotation": [
        0.00015376369992736727,
        0.0072610229253768921,
        0.9999624490737915,
        0.0047243423759937286
      ],
      "scale": [
        0.99975568056106567,
        0.99999964237213135,
        0.99942129850387573
      ],
      "translation": [
        -0.4980546236038208,
        0.9198947548866272,
        -0.01336575485765934
      ]
    }
  ],
  "samplers": [
    {
      "magFilter": 9729,
      "minFilter": 9987,
      "wrapS": 10497,
      "wrapT": 10497
    }
  ],
  "scene": 0,
  "scenes": [
    {
      "name": "OSG_Scene",
      "nodes": [
        0
      ]
    }
  ],
  "skins": [
    {
      "inverseBindMatrices": 4,
      "joints": [
        6,
        9,
        10,
        11,
        12,
        13,
        14,
        15,
        16,
        17
      ],
      "skeleton": 6
    }
  ],
  "textures": [
    {
      "sampler": 0,
      "source": 0
    },
    {
      "sampler": 0,
      "source": 1
    }
  ]
}

